<mxfile host="app.diagrams.net" modified="2021-10-25T20:05:20.899Z" agent="5.0 (Windows NT 10.0; Win64; x64) AppleWebKit/537.36 (KHTML, like Gecko) Chrome/94.0.4606.81 Safari/537.36 Edg/94.0.992.50" etag="bi8PrNm1EAgLF63GJKyu" version="15.5.9" type="github" pages="2">
  <diagram id="QcfeCgYC6YROvoQcwezy" name="CFD">
    <mxGraphModel dx="1831" dy="532" grid="1" gridSize="10" guides="1" tooltips="1" connect="1" arrows="1" fold="1" page="1" pageScale="1" pageWidth="850" pageHeight="1100" math="0" shadow="0">
      <root>
        <mxCell id="0" />
        <mxCell id="1" parent="0" />
        <mxCell id="eU8hsQ7OFh6PPx2WCGZC-1" value="&lt;font style=&quot;font-size: 12px&quot;&gt;&lt;span style=&quot;font-family: &amp;#34;times new roman&amp;#34; ; color: rgb(0 , 0 , 0) ; background-color: transparent ; font-style: normal ; font-variant: normal ; text-decoration: none ; vertical-align: baseline&quot; id=&quot;docs-internal-guid-279cb4f7-7fff-44b1-516b-acc277abbe0b&quot;&gt;AppointCut: A Mobile Application for Scheduling Barber Shop Services and Appointments with Previewed Hairstyles through Augmented Reality&lt;/span&gt;&lt;/font&gt;" style="ellipse;whiteSpace=wrap;html=1;aspect=fixed;" parent="1" vertex="1">
          <mxGeometry x="310" y="220" width="210" height="210" as="geometry" />
        </mxCell>
        <mxCell id="YzoVD2geB_q7kexFXIaQ-12" value="Update Wage Information" style="edgeStyle=orthogonalEdgeStyle;rounded=1;orthogonalLoop=1;jettySize=auto;html=1;startArrow=none;startFill=0;endArrow=classic;endFill=1;entryX=0.245;entryY=0.078;entryDx=0;entryDy=0;entryPerimeter=0;" parent="1" source="eU8hsQ7OFh6PPx2WCGZC-3" target="eU8hsQ7OFh6PPx2WCGZC-1" edge="1">
          <mxGeometry relative="1" as="geometry">
            <Array as="points">
              <mxPoint x="115" y="170" />
              <mxPoint x="330" y="170" />
              <mxPoint x="330" y="225" />
              <mxPoint x="361" y="225" />
            </Array>
          </mxGeometry>
        </mxCell>
        <mxCell id="eU8hsQ7OFh6PPx2WCGZC-3" value="Owner" style="rounded=0;whiteSpace=wrap;html=1;fontSize=12;" parent="1" vertex="1">
          <mxGeometry x="60" y="190" width="110" height="70" as="geometry" />
        </mxCell>
        <mxCell id="YzoVD2geB_q7kexFXIaQ-4" value="&lt;div&gt;Effective Shift Schedule Details&lt;/div&gt;" style="edgeStyle=orthogonalEdgeStyle;rounded=1;orthogonalLoop=1;jettySize=auto;html=1;entryX=0.271;entryY=0.967;entryDx=0;entryDy=0;entryPerimeter=0;startArrow=classic;startFill=1;endArrow=none;endFill=0;" parent="1" source="eU8hsQ7OFh6PPx2WCGZC-4" target="eU8hsQ7OFh6PPx2WCGZC-1" edge="1">
          <mxGeometry relative="1" as="geometry">
            <Array as="points">
              <mxPoint x="80" y="470" />
              <mxPoint x="367" y="470" />
            </Array>
          </mxGeometry>
        </mxCell>
        <mxCell id="eU8hsQ7OFh6PPx2WCGZC-4" value="Desk" style="rounded=0;whiteSpace=wrap;html=1;fontSize=12;" parent="1" vertex="1">
          <mxGeometry x="50" y="330" width="120" height="50" as="geometry" />
        </mxCell>
        <mxCell id="eU8hsQ7OFh6PPx2WCGZC-5" value="Barber" style="rounded=0;whiteSpace=wrap;html=1;fontSize=12;" parent="1" vertex="1">
          <mxGeometry x="370" y="70" width="90" height="40" as="geometry" />
        </mxCell>
        <mxCell id="eU8hsQ7OFh6PPx2WCGZC-6" value="Customer" style="rounded=0;whiteSpace=wrap;html=1;fontSize=12;" parent="1" vertex="1">
          <mxGeometry x="640" y="390" width="100" height="60" as="geometry" />
        </mxCell>
        <mxCell id="eU8hsQ7OFh6PPx2WCGZC-8" value="Payment Processor" style="rounded=0;whiteSpace=wrap;html=1;fontSize=12;" parent="1" vertex="1">
          <mxGeometry x="610" y="160" width="120" height="60" as="geometry" />
        </mxCell>
        <mxCell id="eU8hsQ7OFh6PPx2WCGZC-20" value="Business&amp;nbsp; Status" style="endArrow=classic;html=1;rounded=1;fontSize=12;edgeStyle=orthogonalEdgeStyle;exitX=0.396;exitY=0.01;exitDx=0;exitDy=0;entryX=0.25;entryY=0;entryDx=0;entryDy=0;exitPerimeter=0;" parent="1" source="eU8hsQ7OFh6PPx2WCGZC-1" target="eU8hsQ7OFh6PPx2WCGZC-3" edge="1">
          <mxGeometry x="0.1358" width="50" height="50" relative="1" as="geometry">
            <mxPoint x="170" y="170" as="sourcePoint" />
            <mxPoint x="140" y="180" as="targetPoint" />
            <Array as="points">
              <mxPoint x="393" y="200" />
              <mxPoint x="340" y="200" />
              <mxPoint x="340" y="140" />
              <mxPoint x="87" y="140" />
            </Array>
            <mxPoint as="offset" />
          </mxGeometry>
        </mxCell>
        <mxCell id="eU8hsQ7OFh6PPx2WCGZC-25" value="Personal Information" style="endArrow=classic;html=1;rounded=1;fontSize=12;edgeStyle=orthogonalEdgeStyle;exitX=1.013;exitY=0.107;exitDx=0;exitDy=0;exitPerimeter=0;entryX=0;entryY=0;entryDx=0;entryDy=0;" parent="1" source="eU8hsQ7OFh6PPx2WCGZC-3" target="eU8hsQ7OFh6PPx2WCGZC-1" edge="1">
          <mxGeometry x="-0.4215" width="50" height="50" relative="1" as="geometry">
            <mxPoint x="230" y="320" as="sourcePoint" />
            <mxPoint x="300" y="280" as="targetPoint" />
            <Array as="points">
              <mxPoint x="300" y="198" />
              <mxPoint x="300" y="240" />
              <mxPoint x="341" y="240" />
            </Array>
            <mxPoint as="offset" />
          </mxGeometry>
        </mxCell>
        <mxCell id="eU8hsQ7OFh6PPx2WCGZC-26" value="Barber&lt;br&gt;Information" style="endArrow=classic;html=1;rounded=1;fontSize=12;edgeStyle=orthogonalEdgeStyle;exitX=1;exitY=0.5;exitDx=0;exitDy=0;entryX=0.095;entryY=0.19;entryDx=0;entryDy=0;entryPerimeter=0;" parent="1" source="eU8hsQ7OFh6PPx2WCGZC-3" target="eU8hsQ7OFh6PPx2WCGZC-1" edge="1">
          <mxGeometry x="-0.0598" width="50" height="50" relative="1" as="geometry">
            <mxPoint x="190" y="380" as="sourcePoint" />
            <mxPoint x="240" y="330" as="targetPoint" />
            <Array as="points">
              <mxPoint x="240" y="225" />
              <mxPoint x="240" y="250" />
              <mxPoint x="330" y="250" />
            </Array>
            <mxPoint as="offset" />
          </mxGeometry>
        </mxCell>
        <mxCell id="eU8hsQ7OFh6PPx2WCGZC-27" value="Desk Information" style="endArrow=classic;html=1;rounded=1;fontSize=12;edgeStyle=orthogonalEdgeStyle;exitX=0.681;exitY=1.002;exitDx=0;exitDy=0;entryX=0.024;entryY=0.295;entryDx=0;entryDy=0;entryPerimeter=0;exitPerimeter=0;" parent="1" source="eU8hsQ7OFh6PPx2WCGZC-3" target="eU8hsQ7OFh6PPx2WCGZC-1" edge="1">
          <mxGeometry x="0.2067" width="50" height="50" relative="1" as="geometry">
            <mxPoint x="230" y="400" as="sourcePoint" />
            <mxPoint x="280" y="350" as="targetPoint" />
            <Array as="points">
              <mxPoint x="135" y="270" />
              <mxPoint x="315" y="270" />
            </Array>
            <mxPoint as="offset" />
          </mxGeometry>
        </mxCell>
        <mxCell id="eU8hsQ7OFh6PPx2WCGZC-29" value="Approved Appointment Details" style="endArrow=classic;html=1;rounded=1;fontSize=12;edgeStyle=orthogonalEdgeStyle;exitX=-0.005;exitY=0.376;exitDx=0;exitDy=0;exitPerimeter=0;entryX=0.25;entryY=0;entryDx=0;entryDy=0;" parent="1" source="eU8hsQ7OFh6PPx2WCGZC-1" target="eU8hsQ7OFh6PPx2WCGZC-4" edge="1">
          <mxGeometry x="-0.2069" width="50" height="50" relative="1" as="geometry">
            <mxPoint x="300" y="360" as="sourcePoint" />
            <mxPoint x="100" y="400" as="targetPoint" />
            <Array as="points">
              <mxPoint x="309" y="290" />
              <mxPoint x="80" y="290" />
            </Array>
            <mxPoint as="offset" />
          </mxGeometry>
        </mxCell>
        <mxCell id="eU8hsQ7OFh6PPx2WCGZC-30" value="Walk-in Details" style="endArrow=classic;html=1;rounded=1;fontSize=12;edgeStyle=orthogonalEdgeStyle;exitX=1;exitY=0.75;exitDx=0;exitDy=0;entryX=0.005;entryY=0.657;entryDx=0;entryDy=0;entryPerimeter=0;" parent="1" source="eU8hsQ7OFh6PPx2WCGZC-4" target="eU8hsQ7OFh6PPx2WCGZC-1" edge="1">
          <mxGeometry x="-0.2055" width="50" height="50" relative="1" as="geometry">
            <mxPoint x="180" y="560" as="sourcePoint" />
            <mxPoint x="341" y="420" as="targetPoint" />
            <Array as="points">
              <mxPoint x="210" y="368" />
              <mxPoint x="210" y="370" />
              <mxPoint x="311" y="370" />
            </Array>
            <mxPoint as="offset" />
          </mxGeometry>
        </mxCell>
        <mxCell id="eU8hsQ7OFh6PPx2WCGZC-31" value="Approved Appointment Details" style="endArrow=classic;html=1;rounded=1;fontSize=12;edgeStyle=orthogonalEdgeStyle;entryX=0.067;entryY=0.767;entryDx=0;entryDy=0;entryPerimeter=0;" parent="1" target="eU8hsQ7OFh6PPx2WCGZC-1" edge="1">
          <mxGeometry x="-0.0991" width="50" height="50" relative="1" as="geometry">
            <mxPoint x="160" y="381" as="sourcePoint" />
            <mxPoint x="357" y="435" as="targetPoint" />
            <Array as="points">
              <mxPoint x="160" y="420" />
              <mxPoint x="310" y="420" />
              <mxPoint x="310" y="381" />
            </Array>
            <mxPoint as="offset" />
          </mxGeometry>
        </mxCell>
        <mxCell id="eU8hsQ7OFh6PPx2WCGZC-34" value="Personal Information" style="endArrow=classic;html=1;rounded=1;fontSize=12;edgeStyle=orthogonalEdgeStyle;entryX=0.998;entryY=0.572;entryDx=0;entryDy=0;entryPerimeter=0;" parent="1" source="eU8hsQ7OFh6PPx2WCGZC-6" target="eU8hsQ7OFh6PPx2WCGZC-1" edge="1">
          <mxGeometry x="0.0821" width="50" height="50" relative="1" as="geometry">
            <mxPoint x="730" y="370" as="sourcePoint" />
            <mxPoint x="540" y="340" as="targetPoint" />
            <Array as="points">
              <mxPoint x="722" y="340" />
              <mxPoint x="550" y="340" />
            </Array>
            <mxPoint as="offset" />
          </mxGeometry>
        </mxCell>
        <mxCell id="eU8hsQ7OFh6PPx2WCGZC-35" value="Approved/Requested Appointment Information" style="endArrow=classic;html=1;rounded=1;fontSize=12;edgeStyle=orthogonalEdgeStyle;exitX=0.765;exitY=0.931;exitDx=0;exitDy=0;exitPerimeter=0;entryX=0.797;entryY=1.047;entryDx=0;entryDy=0;entryPerimeter=0;" parent="1" source="eU8hsQ7OFh6PPx2WCGZC-1" target="eU8hsQ7OFh6PPx2WCGZC-6" edge="1">
          <mxGeometry x="0.1114" width="50" height="50" relative="1" as="geometry">
            <mxPoint x="460" y="440" as="sourcePoint" />
            <mxPoint x="710" y="460" as="targetPoint" />
            <Array as="points">
              <mxPoint x="471" y="440" />
              <mxPoint x="470" y="440" />
              <mxPoint x="470" y="480" />
              <mxPoint x="720" y="480" />
            </Array>
            <mxPoint as="offset" />
          </mxGeometry>
        </mxCell>
        <mxCell id="eU8hsQ7OFh6PPx2WCGZC-36" value="Appointment Requests" style="endArrow=classic;html=1;rounded=1;fontSize=12;edgeStyle=orthogonalEdgeStyle;entryX=1;entryY=1;entryDx=0;entryDy=0;exitX=0;exitY=0.75;exitDx=0;exitDy=0;" parent="1" source="eU8hsQ7OFh6PPx2WCGZC-6" target="eU8hsQ7OFh6PPx2WCGZC-1" edge="1">
          <mxGeometry x="-0.1421" width="50" height="50" relative="1" as="geometry">
            <mxPoint x="620" y="420" as="sourcePoint" />
            <mxPoint x="500" y="418" as="targetPoint" />
            <Array as="points">
              <mxPoint x="489" y="435" />
            </Array>
            <mxPoint as="offset" />
          </mxGeometry>
        </mxCell>
        <mxCell id="eU8hsQ7OFh6PPx2WCGZC-37" value="Appointment Requests Details" style="endArrow=classic;html=1;rounded=1;fontSize=12;edgeStyle=orthogonalEdgeStyle;exitX=0;exitY=0.5;exitDx=0;exitDy=0;entryX=0.5;entryY=0;entryDx=0;entryDy=0;" parent="1" source="eU8hsQ7OFh6PPx2WCGZC-1" target="eU8hsQ7OFh6PPx2WCGZC-4" edge="1">
          <mxGeometry width="50" height="50" relative="1" as="geometry">
            <mxPoint x="200" y="430" as="sourcePoint" />
            <mxPoint x="133" y="400" as="targetPoint" />
          </mxGeometry>
        </mxCell>
        <mxCell id="ihMS51rqOD6s6_fyYxc7-1" value="" style="endArrow=classic;html=1;rounded=1;edgeStyle=orthogonalEdgeStyle;" parent="1" source="eU8hsQ7OFh6PPx2WCGZC-1" target="eU8hsQ7OFh6PPx2WCGZC-5" edge="1">
          <mxGeometry width="50" height="50" relative="1" as="geometry">
            <mxPoint x="530" y="240" as="sourcePoint" />
            <mxPoint x="580" y="190" as="targetPoint" />
            <Array as="points">
              <mxPoint x="415" y="95" />
            </Array>
          </mxGeometry>
        </mxCell>
        <mxCell id="ihMS51rqOD6s6_fyYxc7-10" value="Schedule&lt;br&gt;Performance Details&lt;br&gt;Assigned Appointments" style="edgeLabel;html=1;align=center;verticalAlign=middle;resizable=0;points=[];" parent="ihMS51rqOD6s6_fyYxc7-1" vertex="1" connectable="0">
          <mxGeometry x="-0.395" y="-1" relative="1" as="geometry">
            <mxPoint x="-1" y="-20" as="offset" />
          </mxGeometry>
        </mxCell>
        <mxCell id="ihMS51rqOD6s6_fyYxc7-11" value="Payment Details" style="endArrow=classic;html=1;rounded=1;edgeStyle=orthogonalEdgeStyle;exitX=0.5;exitY=0;exitDx=0;exitDy=0;entryX=0.966;entryY=0.715;entryDx=0;entryDy=0;entryPerimeter=0;" parent="1" source="eU8hsQ7OFh6PPx2WCGZC-6" target="eU8hsQ7OFh6PPx2WCGZC-1" edge="1">
          <mxGeometry x="0.0351" width="50" height="50" relative="1" as="geometry">
            <mxPoint x="700" y="370" as="sourcePoint" />
            <mxPoint x="540" y="370" as="targetPoint" />
            <Array as="points">
              <mxPoint x="690" y="370" />
            </Array>
            <mxPoint as="offset" />
          </mxGeometry>
        </mxCell>
        <mxCell id="ihMS51rqOD6s6_fyYxc7-12" value="Payment Details" style="endArrow=classic;html=1;rounded=1;edgeStyle=orthogonalEdgeStyle;exitX=1.005;exitY=0.406;exitDx=0;exitDy=0;exitPerimeter=0;entryX=0.411;entryY=1.001;entryDx=0;entryDy=0;entryPerimeter=0;" parent="1" source="eU8hsQ7OFh6PPx2WCGZC-1" target="eU8hsQ7OFh6PPx2WCGZC-8" edge="1">
          <mxGeometry x="-0.2937" width="50" height="50" relative="1" as="geometry">
            <mxPoint x="600" y="330" as="sourcePoint" />
            <mxPoint x="650" y="250" as="targetPoint" />
            <mxPoint as="offset" />
          </mxGeometry>
        </mxCell>
        <mxCell id="ihMS51rqOD6s6_fyYxc7-13" value="" style="endArrow=classic;html=1;rounded=1;edgeStyle=orthogonalEdgeStyle;exitX=0;exitY=0.5;exitDx=0;exitDy=0;entryX=1;entryY=0;entryDx=0;entryDy=0;" parent="1" source="eU8hsQ7OFh6PPx2WCGZC-8" target="eU8hsQ7OFh6PPx2WCGZC-1" edge="1">
          <mxGeometry width="50" height="50" relative="1" as="geometry">
            <mxPoint x="560" y="270" as="sourcePoint" />
            <mxPoint x="476" y="220" as="targetPoint" />
            <Array as="points">
              <mxPoint x="489" y="190" />
            </Array>
          </mxGeometry>
        </mxCell>
        <mxCell id="ihMS51rqOD6s6_fyYxc7-14" value="Validated Payments" style="edgeLabel;html=1;align=center;verticalAlign=middle;resizable=0;points=[];" parent="ihMS51rqOD6s6_fyYxc7-13" vertex="1" connectable="0">
          <mxGeometry x="-0.1327" y="-1" relative="1" as="geometry">
            <mxPoint x="16" y="1" as="offset" />
          </mxGeometry>
        </mxCell>
        <mxCell id="jR0Vj0uFJXifs4Czaeaf-1" value="Admin" style="rounded=0;whiteSpace=wrap;html=1;fontSize=12;" parent="1" vertex="1">
          <mxGeometry x="355" y="550" width="120" height="60" as="geometry" />
        </mxCell>
        <mxCell id="jR0Vj0uFJXifs4Czaeaf-2" value="" style="endArrow=classic;html=1;rounded=1;strokeColor=default;edgeStyle=orthogonalEdgeStyle;entryX=0.367;entryY=0.013;entryDx=0;entryDy=0;entryPerimeter=0;exitX=0.421;exitY=1;exitDx=0;exitDy=0;exitPerimeter=0;" parent="1" source="eU8hsQ7OFh6PPx2WCGZC-1" target="jR0Vj0uFJXifs4Czaeaf-1" edge="1">
          <mxGeometry width="50" height="50" relative="1" as="geometry">
            <mxPoint x="350" y="570" as="sourcePoint" />
            <mxPoint x="400" y="520" as="targetPoint" />
          </mxGeometry>
        </mxCell>
        <mxCell id="jR0Vj0uFJXifs4Czaeaf-6" value="Read" style="edgeLabel;html=1;align=center;verticalAlign=middle;resizable=0;points=[];" parent="jR0Vj0uFJXifs4Czaeaf-2" vertex="1" connectable="0">
          <mxGeometry x="-0.1843" y="-1" relative="1" as="geometry">
            <mxPoint x="3" y="-10" as="offset" />
          </mxGeometry>
        </mxCell>
        <mxCell id="jR0Vj0uFJXifs4Czaeaf-3" value="Create&lt;br&gt;Update&lt;br&gt;Delete" style="endArrow=classic;html=1;rounded=1;strokeColor=default;edgeStyle=orthogonalEdgeStyle;exitX=0.62;exitY=0.001;exitDx=0;exitDy=0;exitPerimeter=0;" parent="1" source="jR0Vj0uFJXifs4Czaeaf-1" edge="1">
          <mxGeometry x="-0.1704" y="-1" width="50" height="50" relative="1" as="geometry">
            <mxPoint x="408.4100000000001" y="439.9999999999999" as="sourcePoint" />
            <mxPoint x="430" y="430" as="targetPoint" />
            <mxPoint as="offset" />
          </mxGeometry>
        </mxCell>
        <mxCell id="YzoVD2geB_q7kexFXIaQ-3" value="New Shift Schedule Details" style="endArrow=classic;html=1;edgeStyle=orthogonalEdgeStyle;rounded=1;entryX=0;entryY=1;entryDx=0;entryDy=0;startArrow=none;startFill=0;" parent="1" target="eU8hsQ7OFh6PPx2WCGZC-1" edge="1">
          <mxGeometry width="50" height="50" relative="1" as="geometry">
            <mxPoint x="110" y="383" as="sourcePoint" />
            <mxPoint x="200" y="560" as="targetPoint" />
            <Array as="points">
              <mxPoint x="110" y="440" />
              <mxPoint x="341" y="440" />
            </Array>
          </mxGeometry>
        </mxCell>
        <mxCell id="YzoVD2geB_q7kexFXIaQ-5" value="" style="group" parent="1" vertex="1" connectable="0">
          <mxGeometry x="-790" y="115" width="185" height="90" as="geometry" />
        </mxCell>
        <mxCell id="YzoVD2geB_q7kexFXIaQ-6" value="" style="ellipse;whiteSpace=wrap;html=1;direction=south;rotation=90;" parent="YzoVD2geB_q7kexFXIaQ-5" vertex="1">
          <mxGeometry x="40" y="-5" width="55" height="101" as="geometry" />
        </mxCell>
        <mxCell id="YzoVD2geB_q7kexFXIaQ-7" value="" style="ellipse;whiteSpace=wrap;html=1;aspect=fixed;" parent="YzoVD2geB_q7kexFXIaQ-5" vertex="1">
          <mxGeometry width="45" height="45" as="geometry" />
        </mxCell>
        <mxCell id="YzoVD2geB_q7kexFXIaQ-8" value="" style="ellipse;whiteSpace=wrap;html=1;aspect=fixed;" parent="YzoVD2geB_q7kexFXIaQ-5" vertex="1">
          <mxGeometry y="45" width="45" height="45" as="geometry" />
        </mxCell>
        <mxCell id="YzoVD2geB_q7kexFXIaQ-9" value="" style="shape=umlActor;verticalLabelPosition=bottom;verticalAlign=top;html=1;outlineConnect=0;rotation=90;" parent="YzoVD2geB_q7kexFXIaQ-5" vertex="1">
          <mxGeometry x="140" y="15.5" width="30" height="60" as="geometry" />
        </mxCell>
        <mxCell id="YzoVD2geB_q7kexFXIaQ-10" value="" style="shape=or;whiteSpace=wrap;html=1;" parent="YzoVD2geB_q7kexFXIaQ-5" vertex="1">
          <mxGeometry x="80" y="17" width="40" height="57" as="geometry" />
        </mxCell>
        <mxCell id="YzoVD2geB_q7kexFXIaQ-11" value="" style="endArrow=none;html=1;rounded=1;edgeStyle=orthogonalEdgeStyle;" parent="YzoVD2geB_q7kexFXIaQ-5" edge="1">
          <mxGeometry width="50" height="50" relative="1" as="geometry">
            <mxPoint x="110" y="45" as="sourcePoint" />
            <mxPoint x="110" y="45" as="targetPoint" />
            <Array as="points">
              <mxPoint x="130" y="45" />
              <mxPoint x="110" y="45" />
            </Array>
          </mxGeometry>
        </mxCell>
      </root>
    </mxGraphModel>
  </diagram>
  <diagram id="z-SG2S14-h5Qbc_ahD4r" name="CFD-Admin">
    <mxGraphModel dx="1422" dy="772" grid="1" gridSize="10" guides="1" tooltips="1" connect="1" arrows="1" fold="1" page="1" pageScale="1" pageWidth="850" pageHeight="1100" math="0" shadow="0">
      <root>
        <mxCell id="9v1a9WS_H9Mqt1QaRTHw-0" />
        <mxCell id="9v1a9WS_H9Mqt1QaRTHw-1" parent="9v1a9WS_H9Mqt1QaRTHw-0" />
        <mxCell id="lL5zHZhPwYxmuigHh4Fn-0" value="&lt;font style=&quot;font-size: 12px&quot;&gt;&lt;span style=&quot;font-family: &amp;#34;times new roman&amp;#34; ; color: rgb(0 , 0 , 0) ; background-color: transparent ; font-style: normal ; font-variant: normal ; text-decoration: none ; vertical-align: baseline&quot; id=&quot;docs-internal-guid-279cb4f7-7fff-44b1-516b-acc277abbe0b&quot;&gt;AppointCut: A Mobile Application for Scheduling Barber Shop Services and Appointments with Previewed Hairstyles through Augmented Reality&lt;/span&gt;&lt;/font&gt;" style="ellipse;whiteSpace=wrap;html=1;aspect=fixed;" parent="9v1a9WS_H9Mqt1QaRTHw-1" vertex="1">
          <mxGeometry x="120" y="230" width="210" height="210" as="geometry" />
        </mxCell>
        <mxCell id="lL5zHZhPwYxmuigHh4Fn-1" value="Admin" style="rounded=0;whiteSpace=wrap;html=1;fontSize=12;" parent="9v1a9WS_H9Mqt1QaRTHw-1" vertex="1">
          <mxGeometry x="580" y="305" width="120" height="60" as="geometry" />
        </mxCell>
        <mxCell id="F4i1eAzSYNV20_Flw85E-8" value="" style="endArrow=classic;html=1;rounded=0;edgeStyle=orthogonalEdgeStyle;exitX=0.951;exitY=0.289;exitDx=0;exitDy=0;exitPerimeter=0;" parent="9v1a9WS_H9Mqt1QaRTHw-1" source="lL5zHZhPwYxmuigHh4Fn-0" target="lL5zHZhPwYxmuigHh4Fn-1" edge="1">
          <mxGeometry width="50" height="50" relative="1" as="geometry">
            <mxPoint x="320" y="230" as="sourcePoint" />
            <mxPoint x="590" y="291" as="targetPoint" />
            <Array as="points">
              <mxPoint x="320" y="240" />
              <mxPoint x="590" y="240" />
            </Array>
          </mxGeometry>
        </mxCell>
        <mxCell id="KmbpuiYW9SRUuznEyT2X-0" value="Customer Details" style="edgeLabel;html=1;align=center;verticalAlign=middle;resizable=0;points=[];" parent="F4i1eAzSYNV20_Flw85E-8" vertex="1" connectable="0">
          <mxGeometry x="-0.3117" y="2" relative="1" as="geometry">
            <mxPoint x="47" as="offset" />
          </mxGeometry>
        </mxCell>
        <mxCell id="F4i1eAzSYNV20_Flw85E-9" value="" style="endArrow=none;html=1;rounded=0;edgeStyle=orthogonalEdgeStyle;endFill=0;startArrow=classic;startFill=1;exitX=0.941;exitY=0.762;exitDx=0;exitDy=0;exitPerimeter=0;" parent="9v1a9WS_H9Mqt1QaRTHw-1" source="lL5zHZhPwYxmuigHh4Fn-0" target="lL5zHZhPwYxmuigHh4Fn-1" edge="1">
          <mxGeometry width="50" height="50" relative="1" as="geometry">
            <mxPoint x="320" y="400" as="sourcePoint" />
            <mxPoint x="590" y="380" as="targetPoint" />
            <Array as="points">
              <mxPoint x="318" y="440" />
              <mxPoint x="590" y="440" />
            </Array>
          </mxGeometry>
        </mxCell>
        <mxCell id="KmbpuiYW9SRUuznEyT2X-3" value="Approved Customer" style="edgeLabel;html=1;align=center;verticalAlign=middle;resizable=0;points=[];" parent="F4i1eAzSYNV20_Flw85E-9" vertex="1" connectable="0">
          <mxGeometry x="-0.1306" y="-2" relative="1" as="geometry">
            <mxPoint x="10" y="-2" as="offset" />
          </mxGeometry>
        </mxCell>
        <mxCell id="KmbpuiYW9SRUuznEyT2X-4" value="" style="endArrow=none;html=1;rounded=1;edgeStyle=orthogonalEdgeStyle;exitX=1;exitY=1;exitDx=0;exitDy=0;startArrow=classic;startFill=1;endFill=0;entryX=0.164;entryY=0.981;entryDx=0;entryDy=0;entryPerimeter=0;" parent="9v1a9WS_H9Mqt1QaRTHw-1" source="lL5zHZhPwYxmuigHh4Fn-0" target="lL5zHZhPwYxmuigHh4Fn-1" edge="1">
          <mxGeometry width="50" height="50" relative="1" as="geometry">
            <mxPoint x="290" y="430" as="sourcePoint" />
            <mxPoint x="600" y="380" as="targetPoint" />
            <Array as="points">
              <mxPoint x="299" y="430" />
              <mxPoint x="300" y="430" />
              <mxPoint x="300" y="460" />
              <mxPoint x="600" y="460" />
              <mxPoint x="600" y="368" />
            </Array>
          </mxGeometry>
        </mxCell>
        <mxCell id="KmbpuiYW9SRUuznEyT2X-8" value="Approved Owner Details" style="edgeLabel;html=1;align=center;verticalAlign=middle;resizable=0;points=[];" parent="KmbpuiYW9SRUuznEyT2X-4" vertex="1" connectable="0">
          <mxGeometry x="-0.1433" y="2" relative="1" as="geometry">
            <mxPoint x="12" as="offset" />
          </mxGeometry>
        </mxCell>
        <mxCell id="KmbpuiYW9SRUuznEyT2X-5" value="" style="endArrow=classic;html=1;rounded=0;edgeStyle=orthogonalEdgeStyle;endFill=1;startArrow=none;startFill=0;strokeColor=default;" parent="9v1a9WS_H9Mqt1QaRTHw-1" source="lL5zHZhPwYxmuigHh4Fn-0" target="lL5zHZhPwYxmuigHh4Fn-1" edge="1">
          <mxGeometry width="50" height="50" relative="1" as="geometry">
            <mxPoint x="305.54" y="260.6899999999998" as="sourcePoint" />
            <mxPoint x="599" y="300" as="targetPoint" />
            <Array as="points">
              <mxPoint x="305" y="220" />
              <mxPoint x="599" y="220" />
            </Array>
          </mxGeometry>
        </mxCell>
        <mxCell id="KmbpuiYW9SRUuznEyT2X-6" value="Owners Application" style="edgeLabel;html=1;align=center;verticalAlign=middle;resizable=0;points=[];" parent="KmbpuiYW9SRUuznEyT2X-5" vertex="1" connectable="0">
          <mxGeometry x="-0.3117" y="2" relative="1" as="geometry">
            <mxPoint x="47" as="offset" />
          </mxGeometry>
        </mxCell>
        <mxCell id="Xylg9A7ksIJKhDiFP-UO-0" value="" style="endArrow=classic;html=1;rounded=1;edgeStyle=orthogonalEdgeStyle;exitX=0.25;exitY=1;exitDx=0;exitDy=0;" parent="9v1a9WS_H9Mqt1QaRTHw-1" source="lL5zHZhPwYxmuigHh4Fn-1" target="lL5zHZhPwYxmuigHh4Fn-0" edge="1">
          <mxGeometry width="50" height="50" relative="1" as="geometry">
            <mxPoint x="540" y="570" as="sourcePoint" />
            <mxPoint x="280" y="460" as="targetPoint" />
            <Array as="points">
              <mxPoint x="610" y="480" />
              <mxPoint x="280" y="480" />
            </Array>
          </mxGeometry>
        </mxCell>
        <mxCell id="Xylg9A7ksIJKhDiFP-UO-5" value="Added Barber Details" style="edgeLabel;html=1;align=center;verticalAlign=middle;resizable=0;points=[];" parent="Xylg9A7ksIJKhDiFP-UO-0" vertex="1" connectable="0">
          <mxGeometry x="0.1593" y="-1" relative="1" as="geometry">
            <mxPoint x="15" as="offset" />
          </mxGeometry>
        </mxCell>
        <mxCell id="Xylg9A7ksIJKhDiFP-UO-3" value="" style="endArrow=classic;html=1;rounded=0;edgeStyle=orthogonalEdgeStyle;endFill=1;startArrow=none;startFill=0;entryX=0.25;entryY=0;entryDx=0;entryDy=0;" parent="9v1a9WS_H9Mqt1QaRTHw-1" source="lL5zHZhPwYxmuigHh4Fn-0" target="lL5zHZhPwYxmuigHh4Fn-1" edge="1">
          <mxGeometry width="50" height="50" relative="1" as="geometry">
            <mxPoint x="291" y="240" as="sourcePoint" />
            <mxPoint x="584.5" y="289.9999999999999" as="targetPoint" />
            <Array as="points">
              <mxPoint x="291" y="200" />
              <mxPoint x="610" y="200" />
            </Array>
          </mxGeometry>
        </mxCell>
        <mxCell id="Xylg9A7ksIJKhDiFP-UO-4" value="Barber Details" style="edgeLabel;html=1;align=center;verticalAlign=middle;resizable=0;points=[];" parent="Xylg9A7ksIJKhDiFP-UO-3" vertex="1" connectable="0">
          <mxGeometry x="-0.3117" y="2" relative="1" as="geometry">
            <mxPoint x="47" as="offset" />
          </mxGeometry>
        </mxCell>
        <mxCell id="Xylg9A7ksIJKhDiFP-UO-6" value="" style="endArrow=classic;html=1;rounded=0;edgeStyle=orthogonalEdgeStyle;endFill=1;startArrow=none;startFill=0;entryX=0.342;entryY=0.004;entryDx=0;entryDy=0;entryPerimeter=0;" parent="9v1a9WS_H9Mqt1QaRTHw-1" source="lL5zHZhPwYxmuigHh4Fn-0" target="lL5zHZhPwYxmuigHh4Fn-1" edge="1">
          <mxGeometry width="50" height="50" relative="1" as="geometry">
            <mxPoint x="277.98" y="233.3360544671027" as="sourcePoint" />
            <mxPoint x="620" y="290" as="targetPoint" />
            <Array as="points">
              <mxPoint x="278" y="180" />
              <mxPoint x="620" y="180" />
              <mxPoint x="620" y="285" />
              <mxPoint x="621" y="285" />
            </Array>
          </mxGeometry>
        </mxCell>
        <mxCell id="Xylg9A7ksIJKhDiFP-UO-7" value="Desk Details" style="edgeLabel;html=1;align=center;verticalAlign=middle;resizable=0;points=[];" parent="Xylg9A7ksIJKhDiFP-UO-6" vertex="1" connectable="0">
          <mxGeometry x="-0.3117" y="2" relative="1" as="geometry">
            <mxPoint x="47" as="offset" />
          </mxGeometry>
        </mxCell>
        <mxCell id="Xylg9A7ksIJKhDiFP-UO-8" value="" style="endArrow=classic;html=1;rounded=1;edgeStyle=orthogonalEdgeStyle;exitX=0.336;exitY=1.004;exitDx=0;exitDy=0;exitPerimeter=0;" parent="9v1a9WS_H9Mqt1QaRTHw-1" source="lL5zHZhPwYxmuigHh4Fn-1" target="lL5zHZhPwYxmuigHh4Fn-0" edge="1">
          <mxGeometry width="50" height="50" relative="1" as="geometry">
            <mxPoint x="599.97" y="374.9999999999999" as="sourcePoint" />
            <mxPoint x="260" y="450" as="targetPoint" />
            <Array as="points">
              <mxPoint x="620" y="500" />
              <mxPoint x="260" y="500" />
            </Array>
          </mxGeometry>
        </mxCell>
        <mxCell id="Xylg9A7ksIJKhDiFP-UO-9" value="Added Barber Details" style="edgeLabel;html=1;align=center;verticalAlign=middle;resizable=0;points=[];" parent="Xylg9A7ksIJKhDiFP-UO-8" vertex="1" connectable="0">
          <mxGeometry x="0.1593" y="-1" relative="1" as="geometry">
            <mxPoint x="15" as="offset" />
          </mxGeometry>
        </mxCell>
        <mxCell id="tw8a4bLxt4a7vOjRQgqN-0" value="" style="group" parent="9v1a9WS_H9Mqt1QaRTHw-1" vertex="1" connectable="0">
          <mxGeometry x="370" y="295" width="185" height="90" as="geometry" />
        </mxCell>
        <mxCell id="KmbpuiYW9SRUuznEyT2X-11" value="" style="ellipse;whiteSpace=wrap;html=1;direction=south;rotation=90;" parent="tw8a4bLxt4a7vOjRQgqN-0" vertex="1">
          <mxGeometry x="40" y="-5" width="55" height="101" as="geometry" />
        </mxCell>
        <mxCell id="KmbpuiYW9SRUuznEyT2X-9" value="" style="ellipse;whiteSpace=wrap;html=1;aspect=fixed;" parent="tw8a4bLxt4a7vOjRQgqN-0" vertex="1">
          <mxGeometry width="45" height="45" as="geometry" />
        </mxCell>
        <mxCell id="KmbpuiYW9SRUuznEyT2X-10" value="" style="ellipse;whiteSpace=wrap;html=1;aspect=fixed;" parent="tw8a4bLxt4a7vOjRQgqN-0" vertex="1">
          <mxGeometry y="45" width="45" height="45" as="geometry" />
        </mxCell>
        <mxCell id="KmbpuiYW9SRUuznEyT2X-12" value="" style="shape=umlActor;verticalLabelPosition=bottom;verticalAlign=top;html=1;outlineConnect=0;rotation=90;" parent="tw8a4bLxt4a7vOjRQgqN-0" vertex="1">
          <mxGeometry x="140" y="15.5" width="30" height="60" as="geometry" />
        </mxCell>
        <mxCell id="Xylg9A7ksIJKhDiFP-UO-1" value="" style="shape=or;whiteSpace=wrap;html=1;" parent="tw8a4bLxt4a7vOjRQgqN-0" vertex="1">
          <mxGeometry x="80" y="17" width="40" height="57" as="geometry" />
        </mxCell>
        <mxCell id="Xylg9A7ksIJKhDiFP-UO-2" value="" style="endArrow=none;html=1;rounded=1;edgeStyle=orthogonalEdgeStyle;" parent="tw8a4bLxt4a7vOjRQgqN-0" edge="1">
          <mxGeometry width="50" height="50" relative="1" as="geometry">
            <mxPoint x="110" y="45" as="sourcePoint" />
            <mxPoint x="110" y="45" as="targetPoint" />
            <Array as="points">
              <mxPoint x="130" y="45" />
              <mxPoint x="110" y="45" />
            </Array>
          </mxGeometry>
        </mxCell>
      </root>
    </mxGraphModel>
  </diagram>
</mxfile>
